<svg width="58" height="17" viewBox="0 0 58 17" fill="none" xmlns="http://www.w3.org/2000/svg">
<path d="M0.329496 16V0.538005H3.3895V6.73001L4.8295 0.538005H7.9435L6.2155 7.61201L8.3035 16H5.0995L3.4075 8.51201V16H0.329496ZM12.5097 16.144C11.2617 16.144 10.3137 15.766 9.66573 15.01C9.01773 14.242 8.69373 13.168 8.69373 11.788V4.42601C8.69373 3.09401 9.01773 2.09201 9.66573 1.42001C10.3137 0.736005 11.2617 0.394005 12.5097 0.394005C13.7577 0.394005 14.7057 0.736005 15.3537 1.42001C16.0017 2.09201 16.3257 3.09401 16.3257 4.42601V11.788C16.3257 13.18 16.0017 14.254 15.3537 15.01C14.7057 15.766 13.7577 16.144 12.5097 16.144ZM12.5097 13.3C12.7857 13.3 12.9717 13.18 13.0677 12.94C13.1637 12.7 13.2117 12.364 13.2117 11.932V4.37201C13.2117 4.03601 13.1637 3.76601 13.0677 3.56201C12.9837 3.34601 12.8037 3.23801 12.5277 3.23801C12.0117 3.23801 11.7537 3.62801 11.7537 4.40801V11.95C11.7537 12.394 11.8077 12.73 11.9157 12.958C12.0237 13.186 12.2217 13.3 12.5097 13.3ZM17.5736 16V0.538005H20.7596L22.1816 7.93601V0.538005H25.1696V16H22.1456L20.5976 8.26001V16H17.5736ZM27.8705 16V3.50801H26.0345V0.538005H32.8025V3.50801H30.9665V16H27.8705ZM33.2612 16L34.7552 0.538005H39.9932L41.4692 16H38.5352L38.3192 13.498H36.4472L36.2672 16H33.2612ZM36.6812 11.032H38.0852L37.4012 3.16601H37.2572L36.6812 11.032ZM42.4115 16V0.538005H45.4715V6.73001L46.9115 0.538005H50.0255L48.2975 7.61201L50.3855 16H47.1815L45.4895 8.51201V16H42.4115ZM52.2338 16V3.50801H50.3978V0.538005H57.1658V3.50801H55.3298V16H52.2338Z" fill="white" fill-opacity="0.02"/>
</svg>
