<svg width="125" height="125" viewBox="0 0 125 125" fill="none" xmlns="http://www.w3.org/2000/svg">
<g clip-path="url(#clip0)">
<path d="M18.6455 110.396H92.9111L89.3643 98.9114L97.8486 106.193L105.625 113.161L119.791 125V12.8906C119.437 5.92187 113.437 0 106 0L18.6715 0.015625C11.2393 0.015625 5.20801 5.94792 5.20801 12.9167V97.5C5.20801 104.849 11.2288 110.396 18.6455 110.396ZM73.583 29.599L73.4111 29.6615L73.4736 29.599H73.583ZM33.8382 36.2083C43.3851 29.2604 52.234 29.5937 52.234 29.5937L52.9476 30.2969C41.2653 33.0833 35.9684 38.3021 35.9684 38.3021C35.9684 38.3021 37.3851 37.6094 39.859 36.5521C55.5934 30.3646 72.7757 30.8125 88.682 38.6458C88.682 38.6458 83.3747 33.7656 72.4111 30.6406L73.3799 29.6875C74.8955 29.6927 82.9163 29.974 91.4997 36.25C91.4997 36.25 101.104 52.6562 101.104 72.8125C100.786 72.4271 95.1455 81.4896 80.6299 81.8021C80.6299 81.8021 78.1715 79.0208 76.4215 76.5938C84.9111 74.1562 88.0882 69.2812 88.0882 69.2812C85.3018 71.0365 82.7601 72.0781 80.6976 73.1198C77.5257 74.5156 74.3486 75.2031 71.1768 75.9062C56.1559 78.3438 47.7236 74.2656 39.7549 71.0312L37.0309 69.6458C37.0309 69.6458 40.2028 74.5208 48.3538 76.9583C46.2132 79.401 44.0934 82.1771 44.0934 82.1771C29.583 81.8333 24.2913 72.7708 24.2913 72.7708C24.2913 52.5833 33.8382 36.2083 33.8382 36.2083Z" fill="#E5E5E5"/>
<path d="M74.5205 66.5158C78.2236 66.5158 81.2392 63.3908 81.2392 59.5366C81.2392 55.7085 78.2392 52.5835 74.5205 52.5835V52.5991C70.833 52.5991 67.8122 55.7137 67.8018 59.5679C67.8018 63.3908 70.8174 66.5158 74.5205 66.5158Z" fill="#E5E5E5"/>
<path d="M50.4687 66.5158C54.1719 66.5158 57.1875 63.3908 57.1875 59.5366C57.1875 55.7085 54.1927 52.5835 50.4896 52.5835L50.4687 52.5991C46.7656 52.5991 43.75 55.7137 43.75 59.5679C43.75 63.3908 46.7656 66.5158 50.4687 66.5158Z" fill="#E5E5E5"/>
</g>
<defs>
<clipPath id="clip0">
<rect width="125" height="125" fill="white"/>
</clipPath>
</defs>
</svg>
