<svg width="67" height="17" viewBox="0 0 67 17" fill="none" xmlns="http://www.w3.org/2000/svg">
<path d="M4.19128 16.144C3.07528 16.144 2.24128 15.754 1.68928 14.974C1.14928 14.182 0.879276 12.988 0.879276 11.392V4.73201C0.879276 3.30401 1.19728 2.22401 1.83328 1.49201C2.46928 0.760005 3.41728 0.394005 4.67728 0.394005C5.69728 0.394005 6.48928 0.598005 7.05328 1.006C7.61728 1.41401 8.00728 2.00801 8.22328 2.78801C8.43928 3.56801 8.54728 4.57001 8.54728 5.79401H5.52328V4.40801C5.52328 4.03601 5.46928 3.74801 5.36128 3.54401C5.26528 3.34001 5.08528 3.23801 4.82128 3.23801C4.23328 3.23801 3.93928 3.62201 3.93928 4.39001V11.878C3.93928 12.346 3.99928 12.7 4.11928 12.94C4.23928 13.18 4.44928 13.3 4.74928 13.3C5.04928 13.3 5.25928 13.18 5.37928 12.94C5.49928 12.7 5.55928 12.346 5.55928 11.878V9.66401H4.73128V7.00001H8.51128V16H7.26928L6.74728 14.704C6.19528 15.664 5.34328 16.144 4.19128 16.144ZM9.59761 16V0.538005H12.5856V16H9.59761ZM15.2417 16L13.3337 0.520006H16.2857L17.4197 11.05L18.4277 0.520006H21.3797L19.4717 16H15.2417ZM22.2572 16V0.538005H28.4492V3.52601H25.4072V6.53201H28.3232V9.44801H25.4072V12.994H28.6472V16H22.2572ZM29.2612 16L30.7552 0.538005H35.9932L37.4692 16H34.5352L34.3192 13.498H32.4472L32.2672 16H29.2612ZM32.6812 11.032H34.0852L33.4012 3.16601H33.2572L32.6812 11.032ZM39.3714 16L37.7154 0.538005H40.7394L41.6034 10.294L42.4674 0.538005H45.3474L46.1754 10.294L47.0034 0.538005H50.0635L48.3714 16H44.6634L43.8894 8.54801L43.1514 16H39.3714ZM50.1792 16L51.6732 0.538005H56.9112L58.3872 16H55.4532L55.2372 13.498H53.3652L53.1852 16H50.1792ZM53.5992 11.032H55.0032L54.3192 3.16601H54.1752L53.5992 11.032ZM61.2015 16V10.906L58.7355 0.538005H61.7955L62.6595 5.77601L63.5235 0.538005H66.5835L64.1175 10.906V16H61.2015Z" fill="white" fill-opacity="0.02"/>
</svg>
