<svg width="39" height="16" viewBox="0 0 39 16" fill="none" xmlns="http://www.w3.org/2000/svg">
<path d="M0.668898 16V0.538005H3.6569V16H0.668898ZM4.89102 16V0.538005H9.60703L10.903 9.97001L12.199 0.538005H16.951V16H14.125V4.85801L12.343 16H9.57103L7.68103 4.85801V16H4.89102ZM18.1767 16V0.538005H21.1647V16H18.1767ZM22.3988 0.538005H27.1508C27.9068 0.538005 28.4888 0.712005 28.8968 1.06001C29.3168 1.39601 29.5988 1.87601 29.7428 2.50001C29.8868 3.11201 29.9588 3.89801 29.9588 4.85801C29.9588 5.73401 29.8448 6.41801 29.6168 6.91001C29.3888 7.40201 28.9928 7.74401 28.4288 7.93601C28.8968 8.03201 29.2328 8.26601 29.4368 8.63801C29.6528 9.01001 29.7608 9.51401 29.7608 10.15L29.7248 16H26.7008V9.95201C26.7008 9.52001 26.6168 9.24401 26.4488 9.12401C26.2808 9.00401 25.9748 8.94401 25.5308 8.94401V16H22.3988V0.538005ZM26.2868 6.26201C26.7188 6.26201 26.9348 5.79401 26.9348 4.85801C26.9348 4.45001 26.9168 4.14401 26.8808 3.94001C26.8448 3.73601 26.7788 3.59801 26.6828 3.52601C26.5868 3.44201 26.4488 3.40001 26.2688 3.40001H25.5488V6.26201H26.2868ZM30.977 0.538005H35.729C36.485 0.538005 37.067 0.712005 37.475 1.06001C37.895 1.39601 38.177 1.87601 38.321 2.50001C38.465 3.11201 38.537 3.89801 38.537 4.85801C38.537 5.73401 38.423 6.41801 38.195 6.91001C37.967 7.40201 37.571 7.74401 37.007 7.93601C37.475 8.03201 37.811 8.26601 38.015 8.63801C38.231 9.01001 38.339 9.51401 38.339 10.15L38.303 16H35.279V9.95201C35.279 9.52001 35.195 9.24401 35.027 9.12401C34.859 9.00401 34.553 8.94401 34.109 8.94401V16H30.977V0.538005ZM34.865 6.26201C35.297 6.26201 35.513 5.79401 35.513 4.85801C35.513 4.45001 35.495 4.14401 35.459 3.94001C35.423 3.73601 35.357 3.59801 35.261 3.52601C35.165 3.44201 35.027 3.40001 34.847 3.40001H34.127V6.26201H34.865Z" fill="white" fill-opacity="0.02"/>
</svg>
