<svg width="126" height="125" viewBox="0 0 126 125" fill="none" xmlns="http://www.w3.org/2000/svg">
<g clip-path="url(#clip0)">
<path d="M62.9411 30.4062C45.2171 30.4062 30.8682 44.7708 30.8682 62.4792C30.8682 80.2031 45.2327 94.5521 62.9411 94.5521C80.665 94.5521 95.014 80.1875 95.014 62.4792C95.014 44.7552 80.6494 30.4062 62.9411 30.4062ZM62.9411 83.2969C51.4359 83.2969 42.1234 73.9792 42.1234 62.4792C42.1234 50.9792 51.4411 41.6615 62.9411 41.6615C74.4411 41.6615 83.7588 50.9792 83.7588 62.4792C83.764 73.9792 74.4463 83.2969 62.9411 83.2969Z" fill="#E5E5E5"/>
<path d="M88.691 0.395569C77.191 -0.14089 48.7066 -0.114848 37.1962 0.395569C27.0816 0.869527 18.1597 3.31223 10.967 10.5049C-1.05383 22.5258 0.482629 38.7237 0.482629 62.4789C0.482629 86.7914 -0.871537 102.614 10.967 114.453C23.0347 126.515 39.467 124.937 62.941 124.937C87.0243 124.937 95.3368 124.953 103.852 121.656C115.431 117.161 124.17 106.812 125.024 88.2237C125.566 76.7185 125.535 48.2393 125.024 36.7289C123.993 14.7862 112.217 1.4789 88.691 0.395569ZM106.894 106.5C99.0139 114.38 88.0816 113.677 62.7899 113.677C36.7483 113.677 26.3055 114.062 18.6858 106.422C9.90971 97.6872 11.4983 83.6612 11.4983 62.3956C11.4983 33.6195 8.54513 12.8956 37.4253 11.4164C44.0608 11.182 46.0139 11.1039 62.717 11.1039L62.9514 11.2601C90.7066 11.2601 112.483 8.3539 113.79 37.2289C114.087 43.8174 114.155 45.7966 114.155 62.4737C114.149 88.2133 114.639 98.7185 106.894 106.5Z" fill="#E5E5E5"/>
<path d="M96.2848 36.6356C100.424 36.6356 103.78 33.28 103.78 29.1408C103.78 25.0015 100.424 21.646 96.2848 21.646C92.1456 21.646 88.79 25.0015 88.79 29.1408C88.79 33.28 92.1456 36.6356 96.2848 36.6356Z" fill="#E5E5E5"/>
</g>
<defs>
<clipPath id="clip0">
<rect width="125" height="125" fill="white" transform="translate(0.419922)"/>
</clipPath>
</defs>
</svg>
