<svg width="30" height="16" viewBox="0 0 30 16" fill="none" xmlns="http://www.w3.org/2000/svg">
<path d="M0.101962 0.538005H4.85396C5.60996 0.538005 6.19196 0.712005 6.59996 1.06001C7.01996 1.39601 7.30196 1.87601 7.44596 2.50001C7.58996 3.11201 7.66197 3.89801 7.66197 4.85801C7.66197 5.73401 7.54796 6.41801 7.31996 6.91001C7.09196 7.40201 6.69596 7.74401 6.13196 7.93601C6.59996 8.03201 6.93596 8.26601 7.13996 8.63801C7.35596 9.01001 7.46396 9.51401 7.46396 10.15L7.42796 16H4.40396V9.95201C4.40396 9.52001 4.31996 9.24401 4.15196 9.12401C3.98396 9.00401 3.67796 8.94401 3.23396 8.94401V16H0.101962V0.538005ZM3.98996 6.26201C4.42196 6.26201 4.63796 5.79401 4.63796 4.85801C4.63796 4.45001 4.61996 4.14401 4.58396 3.94001C4.54796 3.73601 4.48196 3.59801 4.38596 3.52601C4.28996 3.44201 4.15196 3.40001 3.97196 3.40001H3.25196V6.26201H3.98996ZM8.53609 16V0.538005H11.5241V16H8.53609ZM12.7582 16V0.538005H17.4742L18.7702 9.97001L20.0662 0.538005H24.8182V16H21.9922V4.85801L20.2102 16H17.4382L15.5482 4.85801V16H12.7582ZM26.0439 16V0.538005H29.0319V16H26.0439Z" fill="white" fill-opacity="0.02"/>
</svg>
