<svg width="126" height="125" viewBox="0 0 126 125" fill="none" xmlns="http://www.w3.org/2000/svg">
<g clip-path="url(#clip0)">
<path d="M93.6647 9.11475C76.222 9.11475 61.9928 23.1564 61.8574 40.4689L42.0501 68.7345C36.5241 68.2345 31.7585 69.3752 27.5449 71.9325L0.419922 61.0106V90.8387L16.4616 97.2606C18.7793 107.88 28.3262 115.886 39.623 115.886C51.9043 115.886 62.0814 106.495 63.2012 94.5366L93.696 72.3543C111.191 72.3543 125.42 58.2345 125.42 40.7241L125.415 40.7189C125.415 23.2918 111.186 9.11475 93.6647 9.11475ZM24.2168 100.37C27.0605 101.453 29.9355 102.646 32.7845 103.761C39.9043 106.677 47.9928 103.203 50.8366 96.1148C53.7116 89.0262 50.222 81.0262 43.1126 78.1877L35.8574 75.271C46.6595 72.8752 57.0606 80.9689 57.0658 92.2241C57.0606 101.87 32.7012 116.224 24.2168 100.37ZM93.696 61.9064C81.9199 61.9064 72.3522 52.4533 72.3522 40.7241C72.3522 29.047 81.8939 19.5418 93.696 19.5418C105.389 19.5418 114.956 29.047 114.956 40.7241C114.956 52.4845 105.383 61.9377 93.696 61.9064Z" fill="#E5E5E5"/>
<path d="M93.7529 23.729C84.3519 23.729 76.7373 31.3175 76.7373 40.6821C76.7373 50.0467 84.3258 57.6353 93.7529 57.6353C103.097 57.6353 110.769 50.0728 110.769 40.6821C110.769 31.2915 103.097 23.729 93.7529 23.729Z" fill="#E5E5E5"/>
</g>
<defs>
<clipPath id="clip0">
<rect width="125" height="125" fill="white" transform="translate(0.419922)"/>
</clipPath>
</defs>
</svg>
